<svg xmlns="http://www.w3.org/2000/svg" viewBox="0 0 512 512">
  <rect width="512" height="512" rx="104" fill="#ffffff"/>
  <g stroke="#7c3aed" stroke-width="15" stroke-linejoin="round" stroke-linecap="round">
    <!-- Zähne (hinter dem Schädel, ragen unten heraus) -->
    <g fill="#ffffff">
      <rect x="186" y="360" width="30" height="56" rx="11"/>
      <rect x="220" y="360" width="30" height="56" rx="11"/>
      <rect x="254" y="360" width="30" height="56" rx="11"/>
      <rect x="288" y="360" width="30" height="56" rx="11"/>
    </g>
    <!-- Schädel (Gesicht) -->
    <path fill="#ffffff" d="M 110 250
      C 110 165 168 118 250 118
      C 332 118 392 165 392 250
      C 392 318 374 384 322 384
      L 198 384
      C 146 384 110 318 110 250 Z"/>
    <!-- Mütze -->
    <path fill="#cc7be8" d="M 104 246
      C 100 162 156 108 250 106
      C 360 104 404 64 428 84
      C 452 106 410 196 404 246 Z"/>
    <!-- Mützen-Faltlinie -->
    <path fill="none" d="M 256 110 C 322 150 378 198 404 244"/>
    <!-- Augen -->
    <g fill="#7c3aed" stroke="none">
      <ellipse cx="208" cy="252" rx="33" ry="44"/>
      <ellipse cx="296" cy="252" rx="33" ry="44"/>
    </g>
    <!-- Nase (Herz) -->
    <path fill="#7c3aed" stroke="none" d="M 252 300
      C 245 290 230 292 230 304
      C 230 316 246 324 252 334
      C 258 324 274 316 274 304
      C 274 292 259 290 252 300 Z"/>
  </g>
</svg>
